<svg width="777" height="777" viewBox="0 0 777 777" fill="none" xmlns="http://www.w3.org/2000/svg">
<circle cx="388.5" cy="388.5" r="388.5" fill="#363333"/>
<path d="M519.348 469.165C542.922 435.017 556.756 393.619 556.756 348.975C556.756 231.96 461.913 137.097 344.878 137.097C227.843 137.097 133 231.959 133 348.974C133 465.989 227.843 560.852 344.878 560.852C393.727 560.852 438.678 544.28 474.515 516.514L598.903 640.902L645 594.812L519.348 469.165ZM344.878 515.217C253.211 515.217 178.635 440.643 178.635 348.974C178.635 257.307 253.209 182.731 344.878 182.731C436.547 182.731 511.121 257.305 511.121 348.974C511.121 440.643 436.545 515.217 344.878 515.217Z" fill="#E16428"/>
<path d="M324.738 218.575C271.861 233.765 230.32 275.306 215.123 328.184L246.461 337.174C258.496 295.169 291.725 261.935 333.728 249.9L324.738 218.575Z" fill="#E16428"/>
</svg>
